<svg xmlns="http://www.w3.org/2000/svg" viewBox="0 0 512 512" role="img" aria-labelledby="title">
  <title id="title">ЩДК owl</title>
  <rect width="512" height="512" rx="112" fill="#17191e"/>
  <path fill="#f2b84b" d="M112 116 190 84l66 44 66-44 78 32-26 76c19 29 30 64 30 102 0 96-66 154-148 154s-148-58-148-154c0-38 11-73 30-102l-26-76Z"/>
  <path fill="#f7ead0" d="M256 166c-31-35-96-32-123 9-31 48 4 116 63 116 24 0 45-11 60-29 15 18 36 29 60 29 59 0 94-68 63-116-27-41-92-44-123-9Z"/>
  <circle cx="196" cy="220" r="35" fill="#17191e"/>
  <circle cx="316" cy="220" r="35" fill="#17191e"/>
  <circle cx="207" cy="208" r="10" fill="#fff"/>
  <circle cx="327" cy="208" r="10" fill="#fff"/>
  <path fill="#c96f38" d="m256 248 32 26-32 36-32-36 32-26Z"/>
  <path fill="#c96f38" d="M127 272c-27 45-18 108 20 143 14 13 30 22 48 28-23-43-34-92-26-142l-42-29Z"/>
  <path fill="#c96f38" d="M385 272c27 45 18 108-20 143-14 13-30 22-48 28 23-43 34-92 26-142l42-29Z"/>
</svg>
